<svg xmlns="http://www.w3.org/2000/svg" viewBox="0 0 32 32">
  <rect width="32" height="32" rx="6" fill="#1a4d4d"/>
  
  <!-- Shield outline -->
  <path d="M7 5 L7 20 Q7 28 16 30 Q25 28 25 20 L25 5 Z" fill="none" stroke="#fff" stroke-width="1.5"/>
  
  <!-- Dove silhouette -->
  <g fill="#fff" transform="translate(9, 8) scale(0.35)">
    <path d="M20 35 Q10 30 12 22 Q14 14 25 12 Q32 10 38 15 L42 12 L40 18 Q42 22 40 28 Q38 35 30 38 Q24 40 20 35Z"/>
    <path d="M15 25 Q8 20 10 30 Q12 35 18 32"/>
    <path d="M18 35 L8 42 L14 38 L6 48 L16 40 L10 52 L20 42"/>
  </g>
</svg>